<mxfile host="app.diagrams.net" agent="Mozilla/5.0 (Windows NT 10.0; Win64; x64) AppleWebKit/537.36 (KHTML, like Gecko) Chrome/139.0.0.0 Safari/537.36 Edg/139.0.0.0" version="28.1.0">
  <diagram name="第 1 页" id="Gclz8q8c49hMj084LDAg">
    <mxGraphModel dx="1202" dy="701" grid="1" gridSize="10" guides="1" tooltips="1" connect="1" arrows="1" fold="1" page="1" pageScale="1" pageWidth="827" pageHeight="1169" math="0" shadow="0">
      <root>
        <mxCell id="0" />
        <mxCell id="1" parent="0" />
        <mxCell id="_pFmZdwCmeKVnsKfdtBn-1" value="" style="rounded=0;whiteSpace=wrap;html=1;dashed=1;dashPattern=8 8;" parent="1" vertex="1">
          <mxGeometry x="1600" y="70" width="340" height="280" as="geometry" />
        </mxCell>
        <mxCell id="nVSnsj4ICyqBYPODfNqr-67" value="" style="rounded=0;whiteSpace=wrap;html=1;dashed=1;dashPattern=8 8;" parent="1" vertex="1">
          <mxGeometry x="1620" y="670" width="340" height="370" as="geometry" />
        </mxCell>
        <mxCell id="nVSnsj4ICyqBYPODfNqr-68" value="" style="rounded=0;whiteSpace=wrap;html=1;dashed=1;dashPattern=8 8;" parent="1" vertex="1">
          <mxGeometry x="1140" y="670" width="340" height="370" as="geometry" />
        </mxCell>
        <mxCell id="nVSnsj4ICyqBYPODfNqr-69" value="&lt;div&gt;&lt;br&gt;&lt;/div&gt;&lt;div&gt;&lt;br&gt;&lt;/div&gt;&lt;div&gt;&lt;br&gt;&lt;/div&gt;&lt;div&gt;&lt;br&gt;&lt;/div&gt;&lt;div&gt;&lt;br&gt;&lt;/div&gt;&lt;div&gt;&lt;br&gt;&lt;/div&gt;&lt;div&gt;mail-2&lt;/div&gt;" style="rounded=1;whiteSpace=wrap;html=1;" parent="1" vertex="1">
          <mxGeometry x="1830" y="680" width="100" height="150" as="geometry" />
        </mxCell>
        <mxCell id="nVSnsj4ICyqBYPODfNqr-70" value="&lt;div&gt;&lt;br&gt;&lt;/div&gt;&lt;div&gt;&lt;br&gt;&lt;/div&gt;&lt;div&gt;&lt;br&gt;&lt;/div&gt;&lt;div&gt;&lt;br&gt;&lt;/div&gt;&lt;div&gt;&lt;br&gt;&lt;/div&gt;&lt;div&gt;&lt;br&gt;&lt;/div&gt;&lt;div&gt;mail-1&lt;/div&gt;" style="rounded=1;whiteSpace=wrap;html=1;" parent="1" vertex="1">
          <mxGeometry x="1169.97" y="680" width="100.03" height="150" as="geometry" />
        </mxCell>
        <mxCell id="nVSnsj4ICyqBYPODfNqr-71" value="" style="edgeStyle=orthogonalEdgeStyle;rounded=0;orthogonalLoop=1;jettySize=auto;html=1;endArrow=none;endFill=0;startArrow=none;startFill=0;" parent="1" source="nVSnsj4ICyqBYPODfNqr-72" target="nVSnsj4ICyqBYPODfNqr-73" edge="1">
          <mxGeometry relative="1" as="geometry" />
        </mxCell>
        <mxCell id="nVSnsj4ICyqBYPODfNqr-72" value="Dovecot" style="text;html=1;align=center;verticalAlign=middle;resizable=0;points=[];autosize=1;strokeColor=none;fillColor=#f5f5f5;fontColor=#333333;rounded=1;" parent="1" vertex="1">
          <mxGeometry x="1182.26" y="750" width="70" height="30" as="geometry" />
        </mxCell>
        <mxCell id="nVSnsj4ICyqBYPODfNqr-73" value="&lt;div&gt;Postfix&lt;/div&gt;" style="text;html=1;align=center;verticalAlign=middle;resizable=0;points=[];autosize=1;strokeColor=none;fillColor=#f5f5f5;fontColor=#333333;rounded=1;" parent="1" vertex="1">
          <mxGeometry x="1187.26" y="695" width="60" height="30" as="geometry" />
        </mxCell>
        <mxCell id="nVSnsj4ICyqBYPODfNqr-74" value="Dovecot" style="text;html=1;align=center;verticalAlign=middle;resizable=0;points=[];autosize=1;strokeColor=none;fillColor=#f5f5f5;fontColor=#333333;rounded=1;" parent="1" vertex="1">
          <mxGeometry x="1845" y="750" width="70" height="30" as="geometry" />
        </mxCell>
        <mxCell id="nVSnsj4ICyqBYPODfNqr-75" value="&lt;div&gt;Postfix&lt;/div&gt;" style="text;html=1;align=center;verticalAlign=middle;resizable=0;points=[];autosize=1;strokeColor=none;fillColor=#f5f5f5;fontColor=#333333;rounded=1;" parent="1" vertex="1">
          <mxGeometry x="1850" y="695" width="60" height="30" as="geometry" />
        </mxCell>
        <mxCell id="nVSnsj4ICyqBYPODfNqr-76" value="&lt;span style=&quot;color: light-dark(rgb(51, 51, 51), rgb(193, 193, 193)); text-wrap-mode: nowrap; background-color: transparent;&quot;&gt;delays&lt;/span&gt;&lt;div&gt;&lt;div&gt;&lt;span style=&quot;color: rgb(51, 51, 51); text-wrap-mode: nowrap;&quot;&gt;&lt;br&gt;&lt;/span&gt;&lt;/div&gt;&lt;/div&gt;&lt;div&gt;&lt;span style=&quot;color: rgb(51, 51, 51); text-wrap-mode: nowrap;&quot;&gt;&lt;br&gt;&lt;/span&gt;&lt;/div&gt;" style="rounded=1;whiteSpace=wrap;html=1;" parent="1" vertex="1">
          <mxGeometry x="1490" y="680" width="120" height="150" as="geometry" />
        </mxCell>
        <mxCell id="nVSnsj4ICyqBYPODfNqr-81" value="&lt;div&gt;&lt;br&gt;&lt;/div&gt;&lt;div&gt;&lt;br&gt;&lt;/div&gt;&lt;div&gt;&lt;br&gt;&lt;/div&gt;&lt;div&gt;&lt;br&gt;&lt;/div&gt;&lt;div&gt;&lt;br&gt;&lt;/div&gt;&lt;div&gt;&lt;br&gt;&lt;/div&gt;&lt;div&gt;client-2&lt;/div&gt;" style="rounded=1;whiteSpace=wrap;html=1;" parent="1" vertex="1">
          <mxGeometry x="1163.97" y="890" width="120" height="110" as="geometry" />
        </mxCell>
        <mxCell id="nVSnsj4ICyqBYPODfNqr-82" value="Thunderbird" style="text;html=1;align=center;verticalAlign=middle;resizable=0;points=[];autosize=1;strokeColor=none;fillColor=#f5f5f5;fontColor=#333333;rounded=1;" parent="1" vertex="1">
          <mxGeometry x="1177.68" y="927" width="90" height="30" as="geometry" />
        </mxCell>
        <mxCell id="nVSnsj4ICyqBYPODfNqr-85" value="" style="endArrow=none;html=1;rounded=0;exitX=-0.003;exitY=0.202;exitDx=0;exitDy=0;exitPerimeter=0;entryX=0.994;entryY=0.198;entryDx=0;entryDy=0;entryPerimeter=0;elbow=horizontal;startArrow=classic;startFill=1;endFill=0;dashed=1;" parent="1" source="nVSnsj4ICyqBYPODfNqr-76" target="nVSnsj4ICyqBYPODfNqr-76" edge="1">
          <mxGeometry width="50" height="50" relative="1" as="geometry">
            <mxPoint x="1550" y="780" as="sourcePoint" />
            <mxPoint x="1600" y="730" as="targetPoint" />
          </mxGeometry>
        </mxCell>
        <mxCell id="nVSnsj4ICyqBYPODfNqr-89" style="edgeStyle=orthogonalEdgeStyle;rounded=0;orthogonalLoop=1;jettySize=auto;html=1;startArrow=classic;startFill=1;endArrow=none;endFill=0;dashed=1;" parent="1" source="nVSnsj4ICyqBYPODfNqr-90" edge="1">
          <mxGeometry relative="1" as="geometry">
            <mxPoint x="1490.357567798132" y="710" as="targetPoint" />
          </mxGeometry>
        </mxCell>
        <mxCell id="nVSnsj4ICyqBYPODfNqr-90" value="Gateway" style="text;html=1;align=center;verticalAlign=middle;resizable=0;points=[];autosize=1;strokeColor=none;fillColor=#f5f5f5;fontColor=#333333;rounded=1;" parent="1" vertex="1">
          <mxGeometry x="1380" y="695" width="70" height="30" as="geometry" />
        </mxCell>
        <mxCell id="nVSnsj4ICyqBYPODfNqr-91" style="edgeStyle=orthogonalEdgeStyle;rounded=0;orthogonalLoop=1;jettySize=auto;html=1;endArrow=classic;endFill=1;startArrow=none;startFill=0;dashed=1;" parent="1" source="nVSnsj4ICyqBYPODfNqr-92" edge="1">
          <mxGeometry relative="1" as="geometry">
            <mxPoint x="1610" y="710" as="targetPoint" />
          </mxGeometry>
        </mxCell>
        <mxCell id="nVSnsj4ICyqBYPODfNqr-92" value="&lt;div&gt;&lt;span style=&quot;background-color: transparent; color: light-dark(rgb(51, 51, 51), rgb(193, 193, 193));&quot;&gt;Gateway&lt;/span&gt;&lt;/div&gt;" style="text;html=1;align=center;verticalAlign=middle;resizable=0;points=[];autosize=1;strokeColor=none;fillColor=#f5f5f5;fontColor=#333333;rounded=1;" parent="1" vertex="1">
          <mxGeometry x="1654" y="695" width="70" height="30" as="geometry" />
        </mxCell>
        <mxCell id="nVSnsj4ICyqBYPODfNqr-93" style="edgeStyle=orthogonalEdgeStyle;rounded=0;orthogonalLoop=1;jettySize=auto;html=1;entryX=0.005;entryY=0.5;entryDx=0;entryDy=0;entryPerimeter=0;startArrow=classic;startFill=1;endArrow=classic;endFill=1;" parent="1" source="nVSnsj4ICyqBYPODfNqr-73" target="nVSnsj4ICyqBYPODfNqr-90" edge="1">
          <mxGeometry relative="1" as="geometry" />
        </mxCell>
        <mxCell id="nVSnsj4ICyqBYPODfNqr-94" style="edgeStyle=orthogonalEdgeStyle;rounded=0;orthogonalLoop=1;jettySize=auto;html=1;entryX=0.001;entryY=0.564;entryDx=0;entryDy=0;entryPerimeter=0;startArrow=classic;startFill=1;endArrow=none;endFill=0;dashed=1;" parent="1" source="nVSnsj4ICyqBYPODfNqr-92" target="nVSnsj4ICyqBYPODfNqr-74" edge="1">
          <mxGeometry relative="1" as="geometry" />
        </mxCell>
        <mxCell id="nVSnsj4ICyqBYPODfNqr-95" value="&lt;font style=&quot;font-size: 15px;&quot;&gt;Earth Internet&lt;/font&gt;" style="text;html=1;align=center;verticalAlign=middle;whiteSpace=wrap;rounded=0;" parent="1" vertex="1">
          <mxGeometry x="1269.97" y="630" width="100.03" height="30" as="geometry" />
        </mxCell>
        <mxCell id="nVSnsj4ICyqBYPODfNqr-96" value="&lt;font style=&quot;font-size: 15px;&quot;&gt;Moon Internet&lt;/font&gt;" style="text;html=1;align=center;verticalAlign=middle;whiteSpace=wrap;rounded=0;" parent="1" vertex="1">
          <mxGeometry x="1759.97" y="630" width="100.03" height="30" as="geometry" />
        </mxCell>
        <mxCell id="nVSnsj4ICyqBYPODfNqr-97" value="ION-DTN" style="text;html=1;align=center;verticalAlign=middle;whiteSpace=wrap;rounded=0;" parent="1" vertex="1">
          <mxGeometry x="1520" y="683" width="60" height="30" as="geometry" />
        </mxCell>
        <mxCell id="nVSnsj4ICyqBYPODfNqr-102" value="&lt;div&gt;&lt;br&gt;&lt;/div&gt;&lt;div&gt;&lt;br&gt;&lt;/div&gt;&lt;div&gt;&lt;br&gt;&lt;/div&gt;&lt;div&gt;&lt;br&gt;&lt;/div&gt;&lt;div&gt;&lt;br&gt;&lt;/div&gt;&lt;div&gt;&lt;br&gt;&lt;/div&gt;&lt;div&gt;&lt;br&gt;&lt;/div&gt;&lt;div&gt;&lt;br&gt;&lt;/div&gt;&lt;div&gt;&lt;br&gt;&lt;/div&gt;&lt;div&gt;&lt;br&gt;&lt;/div&gt;&lt;div&gt;&lt;br&gt;&lt;/div&gt;&lt;div&gt;&lt;br&gt;&lt;/div&gt;&lt;div&gt;mail-2-sync&lt;/div&gt;" style="rounded=1;whiteSpace=wrap;html=1;" parent="1" vertex="1">
          <mxGeometry x="1320" y="800" width="130" height="200" as="geometry" />
        </mxCell>
        <mxCell id="nVSnsj4ICyqBYPODfNqr-110" style="edgeStyle=orthogonalEdgeStyle;rounded=0;orthogonalLoop=1;jettySize=auto;html=1;dashed=1;" parent="1" source="nVSnsj4ICyqBYPODfNqr-103" target="nVSnsj4ICyqBYPODfNqr-82" edge="1">
          <mxGeometry relative="1" as="geometry" />
        </mxCell>
        <mxCell id="nVSnsj4ICyqBYPODfNqr-103" value="Dovecot" style="text;html=1;align=center;verticalAlign=middle;resizable=0;points=[];autosize=1;strokeColor=none;fillColor=#f5f5f5;fontColor=#333333;rounded=1;" parent="1" vertex="1">
          <mxGeometry x="1350.58" y="927" width="70" height="30" as="geometry" />
        </mxCell>
        <mxCell id="nVSnsj4ICyqBYPODfNqr-104" value="&lt;div&gt;Postfix&lt;/div&gt;" style="text;html=1;align=center;verticalAlign=middle;resizable=0;points=[];autosize=1;strokeColor=none;fillColor=#f5f5f5;fontColor=#333333;rounded=1;" parent="1" vertex="1">
          <mxGeometry x="1355.58" y="820" width="60" height="30" as="geometry" />
        </mxCell>
        <mxCell id="nVSnsj4ICyqBYPODfNqr-106" value="&lt;div&gt;on-demand sync&lt;/div&gt;" style="text;html=1;align=center;verticalAlign=middle;resizable=0;points=[];autosize=1;strokeColor=none;fillColor=#f5f5f5;fontColor=#333333;rounded=1;" parent="1" vertex="1">
          <mxGeometry x="1330.58" y="870" width="110" height="30" as="geometry" />
        </mxCell>
        <mxCell id="nVSnsj4ICyqBYPODfNqr-107" style="edgeStyle=orthogonalEdgeStyle;rounded=0;orthogonalLoop=1;jettySize=auto;html=1;entryX=1.017;entryY=0.787;entryDx=0;entryDy=0;entryPerimeter=0;exitX=0.506;exitY=0.014;exitDx=0;exitDy=0;exitPerimeter=0;" parent="1" source="nVSnsj4ICyqBYPODfNqr-104" target="nVSnsj4ICyqBYPODfNqr-73" edge="1">
          <mxGeometry relative="1" as="geometry">
            <Array as="points">
              <mxPoint x="1386" y="740" />
              <mxPoint x="1310" y="740" />
              <mxPoint x="1310" y="719" />
              <mxPoint x="1248" y="719" />
            </Array>
          </mxGeometry>
        </mxCell>
        <mxCell id="nVSnsj4ICyqBYPODfNqr-108" style="edgeStyle=orthogonalEdgeStyle;rounded=0;orthogonalLoop=1;jettySize=auto;html=1;dashed=1;exitX=0.673;exitY=1.002;exitDx=0;exitDy=0;exitPerimeter=0;entryX=0.874;entryY=-0.053;entryDx=0;entryDy=0;entryPerimeter=0;" parent="1" source="nVSnsj4ICyqBYPODfNqr-90" target="nVSnsj4ICyqBYPODfNqr-106" edge="1">
          <mxGeometry relative="1" as="geometry">
            <Array as="points" />
          </mxGeometry>
        </mxCell>
        <mxCell id="nVSnsj4ICyqBYPODfNqr-109" style="edgeStyle=orthogonalEdgeStyle;rounded=0;orthogonalLoop=1;jettySize=auto;html=1;entryX=0.513;entryY=0.03;entryDx=0;entryDy=0;entryPerimeter=0;dashed=1;" parent="1" source="nVSnsj4ICyqBYPODfNqr-106" target="nVSnsj4ICyqBYPODfNqr-103" edge="1">
          <mxGeometry relative="1" as="geometry" />
        </mxCell>
        <mxCell id="nVSnsj4ICyqBYPODfNqr-111" style="edgeStyle=orthogonalEdgeStyle;rounded=0;orthogonalLoop=1;jettySize=auto;html=1;entryX=-0.013;entryY=0.676;entryDx=0;entryDy=0;entryPerimeter=0;exitX=0.761;exitY=0.021;exitDx=0;exitDy=0;exitPerimeter=0;" parent="1" source="nVSnsj4ICyqBYPODfNqr-82" target="nVSnsj4ICyqBYPODfNqr-104" edge="1">
          <mxGeometry relative="1" as="geometry" />
        </mxCell>
        <mxCell id="nVSnsj4ICyqBYPODfNqr-112" style="edgeStyle=orthogonalEdgeStyle;rounded=0;orthogonalLoop=1;jettySize=auto;html=1;entryX=0.093;entryY=1.076;entryDx=0;entryDy=0;entryPerimeter=0;" parent="1" source="nVSnsj4ICyqBYPODfNqr-104" target="nVSnsj4ICyqBYPODfNqr-90" edge="1">
          <mxGeometry relative="1" as="geometry" />
        </mxCell>
        <mxCell id="nVSnsj4ICyqBYPODfNqr-113" value="&lt;div&gt;&lt;br&gt;&lt;/div&gt;&lt;div&gt;&lt;br&gt;&lt;/div&gt;&lt;div&gt;&lt;br&gt;&lt;/div&gt;&lt;div&gt;&lt;br&gt;&lt;/div&gt;&lt;div&gt;&lt;br&gt;&lt;/div&gt;&lt;div&gt;&lt;br&gt;&lt;/div&gt;&lt;div&gt;&lt;br&gt;&lt;/div&gt;&lt;div&gt;&lt;br&gt;&lt;/div&gt;&lt;div&gt;&lt;br&gt;&lt;/div&gt;&lt;div&gt;&lt;br&gt;&lt;/div&gt;&lt;div&gt;&lt;br&gt;&lt;/div&gt;&lt;div&gt;&lt;br&gt;&lt;/div&gt;&lt;div&gt;mail-1-sync&lt;/div&gt;" style="rounded=1;whiteSpace=wrap;html=1;" parent="1" vertex="1">
          <mxGeometry x="1640" y="800" width="130" height="200" as="geometry" />
        </mxCell>
        <mxCell id="nVSnsj4ICyqBYPODfNqr-114" value="Dovecot" style="text;html=1;align=center;verticalAlign=middle;resizable=0;points=[];autosize=1;strokeColor=none;fillColor=#f5f5f5;fontColor=#333333;rounded=1;" parent="1" vertex="1">
          <mxGeometry x="1670.58" y="927" width="70" height="30" as="geometry" />
        </mxCell>
        <mxCell id="nVSnsj4ICyqBYPODfNqr-115" value="&lt;div&gt;Postfix&lt;/div&gt;" style="text;html=1;align=center;verticalAlign=middle;resizable=0;points=[];autosize=1;strokeColor=none;fillColor=#f5f5f5;fontColor=#333333;rounded=1;" parent="1" vertex="1">
          <mxGeometry x="1675.58" y="820" width="60" height="30" as="geometry" />
        </mxCell>
        <mxCell id="nVSnsj4ICyqBYPODfNqr-116" value="&lt;div&gt;on-demand sync&lt;/div&gt;" style="text;html=1;align=center;verticalAlign=middle;resizable=0;points=[];autosize=1;strokeColor=none;fillColor=#f5f5f5;fontColor=#333333;rounded=1;" parent="1" vertex="1">
          <mxGeometry x="1650.58" y="870" width="110" height="30" as="geometry" />
        </mxCell>
        <mxCell id="nVSnsj4ICyqBYPODfNqr-117" style="edgeStyle=orthogonalEdgeStyle;rounded=0;orthogonalLoop=1;jettySize=auto;html=1;entryX=0.513;entryY=0.03;entryDx=0;entryDy=0;entryPerimeter=0;dashed=1;" parent="1" source="nVSnsj4ICyqBYPODfNqr-116" target="nVSnsj4ICyqBYPODfNqr-114" edge="1">
          <mxGeometry relative="1" as="geometry" />
        </mxCell>
        <mxCell id="_pFmZdwCmeKVnsKfdtBn-2" value="" style="rounded=0;whiteSpace=wrap;html=1;dashed=1;dashPattern=8 8;" parent="1" vertex="1">
          <mxGeometry x="1120" y="70" width="340" height="280" as="geometry" />
        </mxCell>
        <mxCell id="_pFmZdwCmeKVnsKfdtBn-3" value="&lt;div&gt;&lt;br&gt;&lt;/div&gt;&lt;div&gt;&lt;br&gt;&lt;/div&gt;&lt;div&gt;&lt;br&gt;&lt;/div&gt;&lt;div&gt;&lt;br&gt;&lt;/div&gt;&lt;div&gt;&lt;br&gt;&lt;/div&gt;&lt;div&gt;&lt;br&gt;&lt;/div&gt;&lt;div&gt;&lt;br&gt;&lt;/div&gt;&lt;div&gt;mail server-2&lt;/div&gt;" style="rounded=1;whiteSpace=wrap;html=1;" parent="1" vertex="1">
          <mxGeometry x="1700" y="80" width="210" height="130" as="geometry" />
        </mxCell>
        <mxCell id="_pFmZdwCmeKVnsKfdtBn-4" value="&lt;div&gt;&lt;br&gt;&lt;/div&gt;&lt;div&gt;&lt;br&gt;&lt;/div&gt;&lt;div&gt;&lt;br&gt;&lt;/div&gt;&lt;div&gt;&lt;br&gt;&lt;/div&gt;&lt;div&gt;&lt;br&gt;&lt;/div&gt;&lt;div&gt;&lt;br&gt;&lt;/div&gt;&lt;div&gt;&lt;br&gt;&lt;/div&gt;&lt;div&gt;mail server-1&lt;/div&gt;" style="rounded=1;whiteSpace=wrap;html=1;" parent="1" vertex="1">
          <mxGeometry x="1149.97" y="80" width="210.03" height="130" as="geometry" />
        </mxCell>
        <mxCell id="_pFmZdwCmeKVnsKfdtBn-5" value="" style="edgeStyle=orthogonalEdgeStyle;rounded=0;orthogonalLoop=1;jettySize=auto;html=1;endArrow=none;endFill=0;" parent="1" source="_pFmZdwCmeKVnsKfdtBn-6" target="_pFmZdwCmeKVnsKfdtBn-7" edge="1">
          <mxGeometry relative="1" as="geometry" />
        </mxCell>
        <mxCell id="_pFmZdwCmeKVnsKfdtBn-6" value="Dovecot" style="text;html=1;align=center;verticalAlign=middle;resizable=0;points=[];autosize=1;strokeColor=none;fillColor=#f5f5f5;fontColor=#333333;rounded=1;" parent="1" vertex="1">
          <mxGeometry x="1162.26" y="150" width="70" height="30" as="geometry" />
        </mxCell>
        <mxCell id="_pFmZdwCmeKVnsKfdtBn-7" value="&lt;div&gt;Postfix&lt;/div&gt;" style="text;html=1;align=center;verticalAlign=middle;resizable=0;points=[];autosize=1;strokeColor=none;fillColor=#f5f5f5;fontColor=#333333;rounded=1;" parent="1" vertex="1">
          <mxGeometry x="1167.26" y="95" width="60" height="30" as="geometry" />
        </mxCell>
        <mxCell id="_pFmZdwCmeKVnsKfdtBn-8" value="Dovecot" style="text;html=1;align=center;verticalAlign=middle;resizable=0;points=[];autosize=1;strokeColor=none;fillColor=#f5f5f5;fontColor=#333333;rounded=1;" parent="1" vertex="1">
          <mxGeometry x="1825" y="150" width="70" height="30" as="geometry" />
        </mxCell>
        <mxCell id="_pFmZdwCmeKVnsKfdtBn-9" style="edgeStyle=orthogonalEdgeStyle;rounded=0;orthogonalLoop=1;jettySize=auto;html=1;" parent="1" source="_pFmZdwCmeKVnsKfdtBn-10" target="_pFmZdwCmeKVnsKfdtBn-8" edge="1">
          <mxGeometry relative="1" as="geometry" />
        </mxCell>
        <mxCell id="_pFmZdwCmeKVnsKfdtBn-10" value="&lt;div&gt;Postfix&lt;/div&gt;" style="text;html=1;align=center;verticalAlign=middle;resizable=0;points=[];autosize=1;strokeColor=none;fillColor=#f5f5f5;fontColor=#333333;rounded=1;" parent="1" vertex="1">
          <mxGeometry x="1830" y="95" width="60" height="30" as="geometry" />
        </mxCell>
        <mxCell id="_pFmZdwCmeKVnsKfdtBn-11" value="&lt;span style=&quot;color: rgb(51, 51, 51); text-wrap-mode: nowrap;&quot;&gt;1&lt;/span&gt;&lt;span style=&quot;color: light-dark(rgb(51, 51, 51), rgb(193, 193, 193)); text-wrap-mode: nowrap; background-color: transparent;&quot;&gt;s delay&lt;/span&gt;&lt;div&gt;&lt;div&gt;&lt;span style=&quot;color: rgb(51, 51, 51); text-wrap-mode: nowrap;&quot;&gt;&lt;br&gt;&lt;/span&gt;&lt;/div&gt;&lt;/div&gt;&lt;div&gt;&lt;span style=&quot;color: rgb(51, 51, 51); text-wrap-mode: nowrap;&quot;&gt;&lt;br&gt;&lt;/span&gt;&lt;/div&gt;" style="rounded=1;whiteSpace=wrap;html=1;" parent="1" vertex="1">
          <mxGeometry x="1470" y="80" width="120" height="150" as="geometry" />
        </mxCell>
        <mxCell id="_pFmZdwCmeKVnsKfdtBn-12" value="172.21.0.3" style="text;html=1;align=center;verticalAlign=middle;resizable=0;points=[];autosize=1;strokeColor=none;fillColor=none;" parent="1" vertex="1">
          <mxGeometry x="1208.68" y="210" width="80" height="30" as="geometry" />
        </mxCell>
        <mxCell id="_pFmZdwCmeKVnsKfdtBn-13" value="172.22.0.3" style="text;whiteSpace=wrap;" parent="1" vertex="1">
          <mxGeometry x="1779.99" y="210" width="60" height="20" as="geometry" />
        </mxCell>
        <mxCell id="_pFmZdwCmeKVnsKfdtBn-14" value="172.22.0.2" style="text;whiteSpace=wrap;" parent="1" vertex="1">
          <mxGeometry x="1604" y="109" width="60" height="20" as="geometry" />
        </mxCell>
        <mxCell id="_pFmZdwCmeKVnsKfdtBn-15" value="172.21.0.2" style="text;html=1;align=center;verticalAlign=middle;resizable=0;points=[];autosize=1;strokeColor=none;fillColor=none;" parent="1" vertex="1">
          <mxGeometry x="1386" y="107" width="80" height="30" as="geometry" />
        </mxCell>
        <mxCell id="_pFmZdwCmeKVnsKfdtBn-16" value="&lt;div&gt;&lt;br&gt;&lt;/div&gt;&lt;div&gt;&lt;br&gt;&lt;/div&gt;&lt;div&gt;&lt;br&gt;&lt;/div&gt;&lt;div&gt;client-1&lt;/div&gt;" style="rounded=1;whiteSpace=wrap;html=1;" parent="1" vertex="1">
          <mxGeometry x="1189.97" y="250" width="120" height="70" as="geometry" />
        </mxCell>
        <mxCell id="_pFmZdwCmeKVnsKfdtBn-17" value="Thunderbird" style="text;html=1;align=center;verticalAlign=middle;resizable=0;points=[];autosize=1;strokeColor=none;fillColor=#f5f5f5;fontColor=#333333;rounded=1;" parent="1" vertex="1">
          <mxGeometry x="1204.97" y="260" width="90" height="30" as="geometry" />
        </mxCell>
        <mxCell id="_pFmZdwCmeKVnsKfdtBn-18" style="edgeStyle=orthogonalEdgeStyle;rounded=0;orthogonalLoop=1;jettySize=auto;html=1;entryX=0.001;entryY=0.509;entryDx=0;entryDy=0;entryPerimeter=0;exitX=0.001;exitY=0.502;exitDx=0;exitDy=0;exitPerimeter=0;" parent="1" source="_pFmZdwCmeKVnsKfdtBn-17" target="_pFmZdwCmeKVnsKfdtBn-7" edge="1">
          <mxGeometry relative="1" as="geometry">
            <Array as="points">
              <mxPoint x="1140" y="275" />
              <mxPoint x="1140" y="110" />
            </Array>
          </mxGeometry>
        </mxCell>
        <mxCell id="_pFmZdwCmeKVnsKfdtBn-19" value="172.21.0.4" style="text;html=1;align=center;verticalAlign=middle;resizable=0;points=[];autosize=1;strokeColor=none;fillColor=none;" parent="1" vertex="1">
          <mxGeometry x="1209.97" y="320" width="80" height="30" as="geometry" />
        </mxCell>
        <mxCell id="_pFmZdwCmeKVnsKfdtBn-20" value="" style="endArrow=classic;html=1;rounded=0;exitX=-0.003;exitY=0.202;exitDx=0;exitDy=0;exitPerimeter=0;entryX=0.994;entryY=0.198;entryDx=0;entryDy=0;entryPerimeter=0;elbow=horizontal;dashed=1;" parent="1" source="_pFmZdwCmeKVnsKfdtBn-11" target="_pFmZdwCmeKVnsKfdtBn-11" edge="1">
          <mxGeometry width="50" height="50" relative="1" as="geometry">
            <mxPoint x="1530" y="180" as="sourcePoint" />
            <mxPoint x="1580" y="130" as="targetPoint" />
          </mxGeometry>
        </mxCell>
        <mxCell id="_pFmZdwCmeKVnsKfdtBn-35" value="&lt;div&gt;&lt;br&gt;&lt;/div&gt;&lt;div&gt;&lt;br&gt;&lt;/div&gt;&lt;div&gt;&lt;br&gt;&lt;/div&gt;&lt;div&gt;client-2&lt;/div&gt;" style="rounded=1;whiteSpace=wrap;html=1;" parent="1" vertex="1">
          <mxGeometry x="1735.58" y="250" width="120" height="70" as="geometry" />
        </mxCell>
        <mxCell id="_pFmZdwCmeKVnsKfdtBn-21" style="edgeStyle=orthogonalEdgeStyle;rounded=0;orthogonalLoop=1;jettySize=auto;html=1;entryX=1.007;entryY=0.502;entryDx=0;entryDy=0;entryPerimeter=0;" parent="1" source="_pFmZdwCmeKVnsKfdtBn-8" target="_pFmZdwCmeKVnsKfdtBn-36" edge="1">
          <mxGeometry relative="1" as="geometry" />
        </mxCell>
        <mxCell id="_pFmZdwCmeKVnsKfdtBn-24" style="edgeStyle=orthogonalEdgeStyle;rounded=0;orthogonalLoop=1;jettySize=auto;html=1;dashed=1;" parent="1" source="_pFmZdwCmeKVnsKfdtBn-25" edge="1">
          <mxGeometry relative="1" as="geometry">
            <mxPoint x="1470.357567798132" y="110" as="targetPoint" />
          </mxGeometry>
        </mxCell>
        <mxCell id="_pFmZdwCmeKVnsKfdtBn-25" value="&lt;div&gt;BPMailSend&lt;/div&gt;" style="text;html=1;align=center;verticalAlign=middle;resizable=0;points=[];autosize=1;strokeColor=none;fillColor=#f5f5f5;fontColor=#333333;rounded=1;" parent="1" vertex="1">
          <mxGeometry x="1252.97" y="95" width="90" height="30" as="geometry" />
        </mxCell>
        <mxCell id="_pFmZdwCmeKVnsKfdtBn-26" style="edgeStyle=orthogonalEdgeStyle;rounded=0;orthogonalLoop=1;jettySize=auto;html=1;endArrow=none;endFill=0;startArrow=classic;startFill=1;dashed=1;" parent="1" source="_pFmZdwCmeKVnsKfdtBn-27" edge="1">
          <mxGeometry relative="1" as="geometry">
            <mxPoint x="1590" y="110" as="targetPoint" />
          </mxGeometry>
        </mxCell>
        <mxCell id="_pFmZdwCmeKVnsKfdtBn-27" value="&lt;div&gt;BPMailRecv&lt;/div&gt;" style="text;html=1;align=center;verticalAlign=middle;resizable=0;points=[];autosize=1;strokeColor=none;fillColor=#f5f5f5;fontColor=#333333;rounded=1;" parent="1" vertex="1">
          <mxGeometry x="1721" y="95" width="90" height="30" as="geometry" />
        </mxCell>
        <mxCell id="_pFmZdwCmeKVnsKfdtBn-28" style="edgeStyle=orthogonalEdgeStyle;rounded=0;orthogonalLoop=1;jettySize=auto;html=1;entryX=0.005;entryY=0.5;entryDx=0;entryDy=0;entryPerimeter=0;" parent="1" source="_pFmZdwCmeKVnsKfdtBn-7" target="_pFmZdwCmeKVnsKfdtBn-25" edge="1">
          <mxGeometry relative="1" as="geometry" />
        </mxCell>
        <mxCell id="_pFmZdwCmeKVnsKfdtBn-29" style="edgeStyle=orthogonalEdgeStyle;rounded=0;orthogonalLoop=1;jettySize=auto;html=1;entryX=0.012;entryY=0.497;entryDx=0;entryDy=0;entryPerimeter=0;" parent="1" source="_pFmZdwCmeKVnsKfdtBn-27" target="_pFmZdwCmeKVnsKfdtBn-10" edge="1">
          <mxGeometry relative="1" as="geometry" />
        </mxCell>
        <mxCell id="_pFmZdwCmeKVnsKfdtBn-30" value="&lt;font style=&quot;font-size: 15px;&quot;&gt;Earth Internet&lt;/font&gt;" style="text;html=1;align=center;verticalAlign=middle;whiteSpace=wrap;rounded=0;" parent="1" vertex="1">
          <mxGeometry x="1249.97" y="30" width="100.03" height="30" as="geometry" />
        </mxCell>
        <mxCell id="_pFmZdwCmeKVnsKfdtBn-31" value="&lt;font style=&quot;font-size: 15px;&quot;&gt;Moon Internet&lt;/font&gt;" style="text;html=1;align=center;verticalAlign=middle;whiteSpace=wrap;rounded=0;" parent="1" vertex="1">
          <mxGeometry x="1739.97" y="30" width="100.03" height="30" as="geometry" />
        </mxCell>
        <mxCell id="_pFmZdwCmeKVnsKfdtBn-32" value="ION-DTN" style="text;html=1;align=center;verticalAlign=middle;whiteSpace=wrap;rounded=0;" parent="1" vertex="1">
          <mxGeometry x="1500" y="83" width="60" height="30" as="geometry" />
        </mxCell>
        <mxCell id="_pFmZdwCmeKVnsKfdtBn-36" value="Thunderbird" style="text;html=1;align=center;verticalAlign=middle;resizable=0;points=[];autosize=1;strokeColor=none;fillColor=#f5f5f5;fontColor=#333333;rounded=1;" parent="1" vertex="1">
          <mxGeometry x="1749.29" y="260" width="90" height="30" as="geometry" />
        </mxCell>
        <mxCell id="_pFmZdwCmeKVnsKfdtBn-37" value="172.22.0.4" style="text;html=1;align=center;verticalAlign=middle;resizable=0;points=[];autosize=1;strokeColor=none;fillColor=none;" parent="1" vertex="1">
          <mxGeometry x="1759.29" y="320" width="80" height="30" as="geometry" />
        </mxCell>
        <mxCell id="_pFmZdwCmeKVnsKfdtBn-39" value="" style="rounded=0;whiteSpace=wrap;html=1;dashed=1;dashPattern=8 8;" parent="1" vertex="1">
          <mxGeometry x="620" y="80" width="340" height="280" as="geometry" />
        </mxCell>
        <mxCell id="_pFmZdwCmeKVnsKfdtBn-40" value="" style="rounded=0;whiteSpace=wrap;html=1;dashed=1;dashPattern=8 8;" parent="1" vertex="1">
          <mxGeometry x="140" y="80" width="340" height="280" as="geometry" />
        </mxCell>
        <mxCell id="_pFmZdwCmeKVnsKfdtBn-41" value="&lt;div&gt;&lt;br&gt;&lt;/div&gt;&lt;div&gt;&lt;br&gt;&lt;/div&gt;&lt;div&gt;&lt;br&gt;&lt;/div&gt;&lt;div&gt;&lt;br&gt;&lt;/div&gt;&lt;div&gt;&lt;br&gt;&lt;/div&gt;&lt;div&gt;&lt;br&gt;&lt;/div&gt;&lt;div&gt;&lt;br&gt;&lt;/div&gt;&lt;div&gt;mail-2&lt;/div&gt;" style="rounded=1;whiteSpace=wrap;html=1;" parent="1" vertex="1">
          <mxGeometry x="720" y="90" width="210" height="130" as="geometry" />
        </mxCell>
        <mxCell id="_pFmZdwCmeKVnsKfdtBn-42" value="&lt;div&gt;&lt;br&gt;&lt;/div&gt;&lt;div&gt;&lt;br&gt;&lt;/div&gt;&lt;div&gt;&lt;br&gt;&lt;/div&gt;&lt;div&gt;&lt;br&gt;&lt;/div&gt;&lt;div&gt;&lt;br&gt;&lt;/div&gt;&lt;div&gt;&lt;br&gt;&lt;/div&gt;&lt;div&gt;&lt;br&gt;&lt;/div&gt;&lt;div&gt;mail-1&lt;/div&gt;" style="rounded=1;whiteSpace=wrap;html=1;" parent="1" vertex="1">
          <mxGeometry x="169.97000000000003" y="90" width="210.03" height="130" as="geometry" />
        </mxCell>
        <mxCell id="_pFmZdwCmeKVnsKfdtBn-43" value="" style="edgeStyle=orthogonalEdgeStyle;rounded=0;orthogonalLoop=1;jettySize=auto;html=1;endArrow=none;endFill=0;" parent="1" source="_pFmZdwCmeKVnsKfdtBn-44" target="_pFmZdwCmeKVnsKfdtBn-45" edge="1">
          <mxGeometry relative="1" as="geometry" />
        </mxCell>
        <mxCell id="_pFmZdwCmeKVnsKfdtBn-44" value="Dovecot" style="text;html=1;align=center;verticalAlign=middle;resizable=0;points=[];autosize=1;strokeColor=none;fillColor=#f5f5f5;fontColor=#333333;rounded=1;" parent="1" vertex="1">
          <mxGeometry x="182.26" y="160" width="70" height="30" as="geometry" />
        </mxCell>
        <mxCell id="_pFmZdwCmeKVnsKfdtBn-45" value="&lt;div&gt;Postfix&lt;/div&gt;" style="text;html=1;align=center;verticalAlign=middle;resizable=0;points=[];autosize=1;strokeColor=none;fillColor=#f5f5f5;fontColor=#333333;rounded=1;" parent="1" vertex="1">
          <mxGeometry x="187.26" y="105" width="60" height="30" as="geometry" />
        </mxCell>
        <mxCell id="_pFmZdwCmeKVnsKfdtBn-46" value="Dovecot" style="text;html=1;align=center;verticalAlign=middle;resizable=0;points=[];autosize=1;strokeColor=none;fillColor=#f5f5f5;fontColor=#333333;rounded=1;" parent="1" vertex="1">
          <mxGeometry x="845" y="160" width="70" height="30" as="geometry" />
        </mxCell>
        <mxCell id="_pFmZdwCmeKVnsKfdtBn-47" style="edgeStyle=orthogonalEdgeStyle;rounded=0;orthogonalLoop=1;jettySize=auto;html=1;" parent="1" source="_pFmZdwCmeKVnsKfdtBn-48" target="_pFmZdwCmeKVnsKfdtBn-46" edge="1">
          <mxGeometry relative="1" as="geometry" />
        </mxCell>
        <mxCell id="_pFmZdwCmeKVnsKfdtBn-48" value="&lt;div&gt;Postfix&lt;/div&gt;" style="text;html=1;align=center;verticalAlign=middle;resizable=0;points=[];autosize=1;strokeColor=none;fillColor=#f5f5f5;fontColor=#333333;rounded=1;" parent="1" vertex="1">
          <mxGeometry x="850" y="105" width="60" height="30" as="geometry" />
        </mxCell>
        <mxCell id="_pFmZdwCmeKVnsKfdtBn-49" value="&lt;span style=&quot;color: light-dark(rgb(51, 51, 51), rgb(193, 193, 193)); text-wrap-mode: nowrap; background-color: transparent;&quot;&gt;delays&lt;/span&gt;&lt;div&gt;&lt;div&gt;&lt;span style=&quot;color: rgb(51, 51, 51); text-wrap-mode: nowrap;&quot;&gt;&lt;br&gt;&lt;/span&gt;&lt;/div&gt;&lt;/div&gt;&lt;div&gt;&lt;span style=&quot;color: rgb(51, 51, 51); text-wrap-mode: nowrap;&quot;&gt;&lt;br&gt;&lt;/span&gt;&lt;/div&gt;" style="rounded=1;whiteSpace=wrap;html=1;" parent="1" vertex="1">
          <mxGeometry x="490" y="90" width="120" height="150" as="geometry" />
        </mxCell>
        <mxCell id="_pFmZdwCmeKVnsKfdtBn-50" value="172.21.0.3" style="text;html=1;align=center;verticalAlign=middle;resizable=0;points=[];autosize=1;strokeColor=none;fillColor=none;" parent="1" vertex="1">
          <mxGeometry x="228.6800000000003" y="220" width="80" height="30" as="geometry" />
        </mxCell>
        <mxCell id="_pFmZdwCmeKVnsKfdtBn-51" value="172.22.0.3" style="text;whiteSpace=wrap;" parent="1" vertex="1">
          <mxGeometry x="799.9899999999998" y="220" width="60" height="20" as="geometry" />
        </mxCell>
        <mxCell id="_pFmZdwCmeKVnsKfdtBn-52" value="172.22.0.2" style="text;whiteSpace=wrap;" parent="1" vertex="1">
          <mxGeometry x="624" y="119" width="60" height="20" as="geometry" />
        </mxCell>
        <mxCell id="_pFmZdwCmeKVnsKfdtBn-53" value="172.21.0.2" style="text;html=1;align=center;verticalAlign=middle;resizable=0;points=[];autosize=1;strokeColor=none;fillColor=none;" parent="1" vertex="1">
          <mxGeometry x="406" y="117" width="80" height="30" as="geometry" />
        </mxCell>
        <mxCell id="_pFmZdwCmeKVnsKfdtBn-54" value="&lt;div&gt;&lt;br&gt;&lt;/div&gt;&lt;div&gt;&lt;br&gt;&lt;/div&gt;&lt;div&gt;&lt;br&gt;&lt;/div&gt;&lt;div&gt;client-1&lt;/div&gt;" style="rounded=1;whiteSpace=wrap;html=1;" parent="1" vertex="1">
          <mxGeometry x="187.26000000000025" y="260" width="120" height="70" as="geometry" />
        </mxCell>
        <mxCell id="_pFmZdwCmeKVnsKfdtBn-55" value="Thunderbird" style="text;html=1;align=center;verticalAlign=middle;resizable=0;points=[];autosize=1;strokeColor=none;fillColor=#f5f5f5;fontColor=#333333;rounded=1;" parent="1" vertex="1">
          <mxGeometry x="202.26000000000025" y="270" width="90" height="30" as="geometry" />
        </mxCell>
        <mxCell id="_pFmZdwCmeKVnsKfdtBn-56" style="edgeStyle=orthogonalEdgeStyle;rounded=0;orthogonalLoop=1;jettySize=auto;html=1;entryX=0.001;entryY=0.509;entryDx=0;entryDy=0;entryPerimeter=0;exitX=0.001;exitY=0.502;exitDx=0;exitDy=0;exitPerimeter=0;" parent="1" source="_pFmZdwCmeKVnsKfdtBn-55" target="_pFmZdwCmeKVnsKfdtBn-45" edge="1">
          <mxGeometry relative="1" as="geometry">
            <Array as="points">
              <mxPoint x="160" y="285" />
              <mxPoint x="160" y="120" />
            </Array>
          </mxGeometry>
        </mxCell>
        <mxCell id="_pFmZdwCmeKVnsKfdtBn-57" value="172.21.0.4" style="text;html=1;align=center;verticalAlign=middle;resizable=0;points=[];autosize=1;strokeColor=none;fillColor=none;" parent="1" vertex="1">
          <mxGeometry x="207.26000000000025" y="330" width="80" height="30" as="geometry" />
        </mxCell>
        <mxCell id="_pFmZdwCmeKVnsKfdtBn-58" value="" style="endArrow=classic;html=1;rounded=0;exitX=-0.003;exitY=0.202;exitDx=0;exitDy=0;exitPerimeter=0;entryX=0.994;entryY=0.198;entryDx=0;entryDy=0;entryPerimeter=0;elbow=horizontal;dashed=1;" parent="1" source="_pFmZdwCmeKVnsKfdtBn-49" target="_pFmZdwCmeKVnsKfdtBn-49" edge="1">
          <mxGeometry width="50" height="50" relative="1" as="geometry">
            <mxPoint x="550" y="190" as="sourcePoint" />
            <mxPoint x="600" y="140" as="targetPoint" />
          </mxGeometry>
        </mxCell>
        <mxCell id="_pFmZdwCmeKVnsKfdtBn-59" value="&lt;div&gt;&lt;br&gt;&lt;/div&gt;&lt;div&gt;&lt;br&gt;&lt;/div&gt;&lt;div&gt;&lt;br&gt;&lt;/div&gt;&lt;div&gt;client-2&lt;/div&gt;" style="rounded=1;whiteSpace=wrap;html=1;" parent="1" vertex="1">
          <mxGeometry x="335.96999999999997" y="260" width="120" height="70" as="geometry" />
        </mxCell>
        <mxCell id="_pFmZdwCmeKVnsKfdtBn-60" style="edgeStyle=orthogonalEdgeStyle;rounded=0;orthogonalLoop=1;jettySize=auto;html=1;entryX=1.007;entryY=0.502;entryDx=0;entryDy=0;entryPerimeter=0;" parent="1" source="_pFmZdwCmeKVnsKfdtBn-46" target="_pFmZdwCmeKVnsKfdtBn-70" edge="1">
          <mxGeometry relative="1" as="geometry">
            <Array as="points">
              <mxPoint x="470" y="175" />
              <mxPoint x="470" y="285" />
            </Array>
          </mxGeometry>
        </mxCell>
        <mxCell id="_pFmZdwCmeKVnsKfdtBn-61" style="edgeStyle=orthogonalEdgeStyle;rounded=0;orthogonalLoop=1;jettySize=auto;html=1;dashed=1;" parent="1" source="_pFmZdwCmeKVnsKfdtBn-62" edge="1">
          <mxGeometry relative="1" as="geometry">
            <mxPoint x="490.3575677981321" y="120" as="targetPoint" />
          </mxGeometry>
        </mxCell>
        <mxCell id="_pFmZdwCmeKVnsKfdtBn-62" value="&lt;div&gt;BPMailSend&lt;/div&gt;" style="text;html=1;align=center;verticalAlign=middle;resizable=0;points=[];autosize=1;strokeColor=none;fillColor=#f5f5f5;fontColor=#333333;rounded=1;" parent="1" vertex="1">
          <mxGeometry x="272.97000000000025" y="105" width="90" height="30" as="geometry" />
        </mxCell>
        <mxCell id="_pFmZdwCmeKVnsKfdtBn-63" style="edgeStyle=orthogonalEdgeStyle;rounded=0;orthogonalLoop=1;jettySize=auto;html=1;endArrow=none;endFill=0;startArrow=classic;startFill=1;dashed=1;" parent="1" source="_pFmZdwCmeKVnsKfdtBn-64" edge="1">
          <mxGeometry relative="1" as="geometry">
            <mxPoint x="610" y="120" as="targetPoint" />
          </mxGeometry>
        </mxCell>
        <mxCell id="_pFmZdwCmeKVnsKfdtBn-64" value="&lt;div&gt;BPMailRecv&lt;/div&gt;" style="text;html=1;align=center;verticalAlign=middle;resizable=0;points=[];autosize=1;strokeColor=none;fillColor=#f5f5f5;fontColor=#333333;rounded=1;" parent="1" vertex="1">
          <mxGeometry x="741" y="105" width="90" height="30" as="geometry" />
        </mxCell>
        <mxCell id="_pFmZdwCmeKVnsKfdtBn-65" style="edgeStyle=orthogonalEdgeStyle;rounded=0;orthogonalLoop=1;jettySize=auto;html=1;entryX=0.005;entryY=0.5;entryDx=0;entryDy=0;entryPerimeter=0;" parent="1" source="_pFmZdwCmeKVnsKfdtBn-45" target="_pFmZdwCmeKVnsKfdtBn-62" edge="1">
          <mxGeometry relative="1" as="geometry" />
        </mxCell>
        <mxCell id="_pFmZdwCmeKVnsKfdtBn-66" style="edgeStyle=orthogonalEdgeStyle;rounded=0;orthogonalLoop=1;jettySize=auto;html=1;entryX=0.012;entryY=0.497;entryDx=0;entryDy=0;entryPerimeter=0;" parent="1" source="_pFmZdwCmeKVnsKfdtBn-64" target="_pFmZdwCmeKVnsKfdtBn-48" edge="1">
          <mxGeometry relative="1" as="geometry" />
        </mxCell>
        <mxCell id="_pFmZdwCmeKVnsKfdtBn-67" value="&lt;font style=&quot;font-size: 15px;&quot;&gt;Earth Internet&lt;/font&gt;" style="text;html=1;align=center;verticalAlign=middle;whiteSpace=wrap;rounded=0;" parent="1" vertex="1">
          <mxGeometry x="269.97000000000025" y="40" width="100.03" height="30" as="geometry" />
        </mxCell>
        <mxCell id="_pFmZdwCmeKVnsKfdtBn-68" value="&lt;font style=&quot;font-size: 15px;&quot;&gt;Moon Internet&lt;/font&gt;" style="text;html=1;align=center;verticalAlign=middle;whiteSpace=wrap;rounded=0;" parent="1" vertex="1">
          <mxGeometry x="759.9700000000003" y="40" width="100.03" height="30" as="geometry" />
        </mxCell>
        <mxCell id="_pFmZdwCmeKVnsKfdtBn-69" value="ION-DTN" style="text;html=1;align=center;verticalAlign=middle;whiteSpace=wrap;rounded=0;" parent="1" vertex="1">
          <mxGeometry x="520" y="93" width="60" height="30" as="geometry" />
        </mxCell>
        <mxCell id="_pFmZdwCmeKVnsKfdtBn-70" value="Thunderbird" style="text;html=1;align=center;verticalAlign=middle;resizable=0;points=[];autosize=1;strokeColor=none;fillColor=#f5f5f5;fontColor=#333333;rounded=1;" parent="1" vertex="1">
          <mxGeometry x="349.68" y="270" width="90" height="30" as="geometry" />
        </mxCell>
        <mxCell id="_pFmZdwCmeKVnsKfdtBn-71" value="172.21.0.5" style="text;html=1;align=center;verticalAlign=middle;resizable=0;points=[];autosize=1;strokeColor=none;fillColor=none;" parent="1" vertex="1">
          <mxGeometry x="359.68" y="330" width="80" height="30" as="geometry" />
        </mxCell>
        <mxCell id="_pFmZdwCmeKVnsKfdtBn-72" value="" style="rounded=0;whiteSpace=wrap;html=1;dashed=1;dashPattern=8 8;" parent="1" vertex="1">
          <mxGeometry x="620" y="720" width="340" height="280" as="geometry" />
        </mxCell>
        <mxCell id="_pFmZdwCmeKVnsKfdtBn-73" value="" style="rounded=0;whiteSpace=wrap;html=1;dashed=1;dashPattern=8 8;" parent="1" vertex="1">
          <mxGeometry x="140" y="720" width="340" height="280" as="geometry" />
        </mxCell>
        <mxCell id="_pFmZdwCmeKVnsKfdtBn-74" value="&lt;div&gt;&lt;br&gt;&lt;/div&gt;&lt;div&gt;&lt;br&gt;&lt;/div&gt;&lt;div&gt;&lt;br&gt;&lt;/div&gt;&lt;div&gt;&lt;br&gt;&lt;/div&gt;&lt;div&gt;&lt;br&gt;&lt;/div&gt;&lt;div&gt;&lt;br&gt;&lt;/div&gt;&lt;div&gt;&lt;br&gt;&lt;/div&gt;&lt;div&gt;mail server-2&lt;/div&gt;" style="rounded=1;whiteSpace=wrap;html=1;" parent="1" vertex="1">
          <mxGeometry x="720" y="730" width="210" height="130" as="geometry" />
        </mxCell>
        <mxCell id="_pFmZdwCmeKVnsKfdtBn-75" value="&lt;div&gt;&lt;br&gt;&lt;/div&gt;&lt;div&gt;&lt;br&gt;&lt;/div&gt;&lt;div&gt;&lt;br&gt;&lt;/div&gt;&lt;div&gt;&lt;br&gt;&lt;/div&gt;&lt;div&gt;&lt;br&gt;&lt;/div&gt;&lt;div&gt;&lt;br&gt;&lt;/div&gt;&lt;div&gt;&lt;br&gt;&lt;/div&gt;&lt;div&gt;mail server-1&lt;/div&gt;" style="rounded=1;whiteSpace=wrap;html=1;" parent="1" vertex="1">
          <mxGeometry x="169.97000000000003" y="730" width="210.03" height="130" as="geometry" />
        </mxCell>
        <mxCell id="_pFmZdwCmeKVnsKfdtBn-76" value="" style="edgeStyle=orthogonalEdgeStyle;rounded=0;orthogonalLoop=1;jettySize=auto;html=1;endArrow=none;endFill=0;" parent="1" source="_pFmZdwCmeKVnsKfdtBn-77" target="_pFmZdwCmeKVnsKfdtBn-78" edge="1">
          <mxGeometry relative="1" as="geometry" />
        </mxCell>
        <mxCell id="_pFmZdwCmeKVnsKfdtBn-77" value="Dovecot" style="text;html=1;align=center;verticalAlign=middle;resizable=0;points=[];autosize=1;strokeColor=none;fillColor=#f5f5f5;fontColor=#333333;rounded=1;" parent="1" vertex="1">
          <mxGeometry x="182.26" y="800" width="70" height="30" as="geometry" />
        </mxCell>
        <mxCell id="_pFmZdwCmeKVnsKfdtBn-78" value="&lt;div&gt;Postfix&lt;/div&gt;" style="text;html=1;align=center;verticalAlign=middle;resizable=0;points=[];autosize=1;strokeColor=none;fillColor=#f5f5f5;fontColor=#333333;rounded=1;" parent="1" vertex="1">
          <mxGeometry x="187.26" y="745" width="60" height="30" as="geometry" />
        </mxCell>
        <mxCell id="_pFmZdwCmeKVnsKfdtBn-79" value="Dovecot" style="text;html=1;align=center;verticalAlign=middle;resizable=0;points=[];autosize=1;strokeColor=none;fillColor=#f5f5f5;fontColor=#333333;rounded=1;" parent="1" vertex="1">
          <mxGeometry x="845" y="804" width="70" height="30" as="geometry" />
        </mxCell>
        <mxCell id="_pFmZdwCmeKVnsKfdtBn-80" style="edgeStyle=orthogonalEdgeStyle;rounded=0;orthogonalLoop=1;jettySize=auto;html=1;endArrow=none;endFill=0;" parent="1" source="_pFmZdwCmeKVnsKfdtBn-81" target="_pFmZdwCmeKVnsKfdtBn-79" edge="1">
          <mxGeometry relative="1" as="geometry" />
        </mxCell>
        <mxCell id="_pFmZdwCmeKVnsKfdtBn-81" value="&lt;div&gt;Postfix&lt;/div&gt;" style="text;html=1;align=center;verticalAlign=middle;resizable=0;points=[];autosize=1;strokeColor=none;fillColor=#f5f5f5;fontColor=#333333;rounded=1;" parent="1" vertex="1">
          <mxGeometry x="850" y="745" width="60" height="30" as="geometry" />
        </mxCell>
        <mxCell id="_pFmZdwCmeKVnsKfdtBn-82" value="&lt;span style=&quot;color: light-dark(rgb(51, 51, 51), rgb(193, 193, 193)); text-wrap-mode: nowrap; background-color: transparent;&quot;&gt;delay&lt;/span&gt;&lt;div&gt;&lt;div&gt;&lt;span style=&quot;color: rgb(51, 51, 51); text-wrap-mode: nowrap;&quot;&gt;&lt;br&gt;&lt;/span&gt;&lt;/div&gt;&lt;/div&gt;&lt;div&gt;&lt;span style=&quot;color: rgb(51, 51, 51); text-wrap-mode: nowrap;&quot;&gt;&lt;br&gt;&lt;/span&gt;&lt;/div&gt;&lt;div&gt;&lt;span style=&quot;color: rgb(51, 51, 51); text-wrap-mode: nowrap;&quot;&gt;&lt;br&gt;&lt;/span&gt;&lt;/div&gt;" style="rounded=1;whiteSpace=wrap;html=1;" parent="1" vertex="1">
          <mxGeometry x="490" y="730" width="120" height="150" as="geometry" />
        </mxCell>
        <mxCell id="_pFmZdwCmeKVnsKfdtBn-83" value="172.21.0.3" style="text;html=1;align=center;verticalAlign=middle;resizable=0;points=[];autosize=1;strokeColor=none;fillColor=none;" parent="1" vertex="1">
          <mxGeometry x="228.6800000000003" y="860" width="80" height="30" as="geometry" />
        </mxCell>
        <mxCell id="_pFmZdwCmeKVnsKfdtBn-84" value="172.22.0.3" style="text;whiteSpace=wrap;" parent="1" vertex="1">
          <mxGeometry x="799.9899999999998" y="860" width="60" height="20" as="geometry" />
        </mxCell>
        <mxCell id="_pFmZdwCmeKVnsKfdtBn-85" value="172.22.0.2" style="text;whiteSpace=wrap;" parent="1" vertex="1">
          <mxGeometry x="624" y="759" width="60" height="20" as="geometry" />
        </mxCell>
        <mxCell id="_pFmZdwCmeKVnsKfdtBn-86" value="172.21.0.2" style="text;html=1;align=center;verticalAlign=middle;resizable=0;points=[];autosize=1;strokeColor=none;fillColor=none;" parent="1" vertex="1">
          <mxGeometry x="406" y="757" width="80" height="30" as="geometry" />
        </mxCell>
        <mxCell id="_pFmZdwCmeKVnsKfdtBn-87" value="&lt;div&gt;&lt;br&gt;&lt;/div&gt;&lt;div&gt;&lt;br&gt;&lt;/div&gt;&lt;div&gt;&lt;br&gt;&lt;/div&gt;&lt;div&gt;client-1&lt;/div&gt;" style="rounded=1;whiteSpace=wrap;html=1;" parent="1" vertex="1">
          <mxGeometry x="187.26000000000022" y="900" width="120" height="70" as="geometry" />
        </mxCell>
        <mxCell id="_pFmZdwCmeKVnsKfdtBn-88" value="Thunderbird" style="text;html=1;align=center;verticalAlign=middle;resizable=0;points=[];autosize=1;strokeColor=none;fillColor=#f5f5f5;fontColor=#333333;rounded=1;" parent="1" vertex="1">
          <mxGeometry x="202.26000000000022" y="910" width="90" height="30" as="geometry" />
        </mxCell>
        <mxCell id="_pFmZdwCmeKVnsKfdtBn-89" style="edgeStyle=orthogonalEdgeStyle;rounded=0;orthogonalLoop=1;jettySize=auto;html=1;entryX=0.001;entryY=0.509;entryDx=0;entryDy=0;entryPerimeter=0;exitX=0.001;exitY=0.502;exitDx=0;exitDy=0;exitPerimeter=0;startArrow=classic;startFill=1;endArrow=none;endFill=0;" parent="1" source="_pFmZdwCmeKVnsKfdtBn-88" target="_pFmZdwCmeKVnsKfdtBn-78" edge="1">
          <mxGeometry relative="1" as="geometry">
            <Array as="points">
              <mxPoint x="160" y="925" />
              <mxPoint x="160" y="760" />
            </Array>
          </mxGeometry>
        </mxCell>
        <mxCell id="_pFmZdwCmeKVnsKfdtBn-90" value="172.21.0.4" style="text;html=1;align=center;verticalAlign=middle;resizable=0;points=[];autosize=1;strokeColor=none;fillColor=none;" parent="1" vertex="1">
          <mxGeometry x="207.26000000000022" y="970" width="80" height="30" as="geometry" />
        </mxCell>
        <mxCell id="_pFmZdwCmeKVnsKfdtBn-91" value="" style="endArrow=none;html=1;rounded=0;exitX=-0.003;exitY=0.202;exitDx=0;exitDy=0;exitPerimeter=0;entryX=0.994;entryY=0.198;entryDx=0;entryDy=0;entryPerimeter=0;elbow=horizontal;dashed=1;startArrow=classic;startFill=1;endFill=0;" parent="1" source="_pFmZdwCmeKVnsKfdtBn-82" target="_pFmZdwCmeKVnsKfdtBn-82" edge="1">
          <mxGeometry width="50" height="50" relative="1" as="geometry">
            <mxPoint x="550" y="830" as="sourcePoint" />
            <mxPoint x="600" y="780" as="targetPoint" />
          </mxGeometry>
        </mxCell>
        <mxCell id="_pFmZdwCmeKVnsKfdtBn-92" value="&lt;div&gt;&lt;br&gt;&lt;/div&gt;&lt;div&gt;&lt;br&gt;&lt;/div&gt;&lt;div&gt;&lt;br&gt;&lt;/div&gt;&lt;div&gt;client-2&lt;/div&gt;" style="rounded=1;whiteSpace=wrap;html=1;" parent="1" vertex="1">
          <mxGeometry x="335.97" y="900" width="120" height="70" as="geometry" />
        </mxCell>
        <mxCell id="_pFmZdwCmeKVnsKfdtBn-93" style="edgeStyle=orthogonalEdgeStyle;rounded=0;orthogonalLoop=1;jettySize=auto;html=1;entryX=1.007;entryY=0.502;entryDx=0;entryDy=0;entryPerimeter=0;startArrow=classic;startFill=1;endArrow=none;endFill=0;exitX=0.2;exitY=1.03;exitDx=0;exitDy=0;exitPerimeter=0;" parent="1" source="_pFmZdwCmeKVnsKfdtBn-81" target="_pFmZdwCmeKVnsKfdtBn-103" edge="1">
          <mxGeometry relative="1" as="geometry">
            <Array as="points">
              <mxPoint x="862" y="800" />
              <mxPoint x="470" y="800" />
              <mxPoint x="470" y="925" />
            </Array>
          </mxGeometry>
        </mxCell>
        <mxCell id="_pFmZdwCmeKVnsKfdtBn-94" style="edgeStyle=orthogonalEdgeStyle;rounded=0;orthogonalLoop=1;jettySize=auto;html=1;dashed=1;startArrow=classic;startFill=1;endArrow=none;endFill=0;" parent="1" source="_pFmZdwCmeKVnsKfdtBn-95" edge="1">
          <mxGeometry relative="1" as="geometry">
            <mxPoint x="490.3575677981321" y="760" as="targetPoint" />
          </mxGeometry>
        </mxCell>
        <mxCell id="_pFmZdwCmeKVnsKfdtBn-95" value="BPMailRecv" style="text;html=1;align=center;verticalAlign=middle;resizable=0;points=[];autosize=1;strokeColor=none;fillColor=#f5f5f5;fontColor=#333333;rounded=1;" parent="1" vertex="1">
          <mxGeometry x="272.97000000000025" y="745" width="90" height="30" as="geometry" />
        </mxCell>
        <mxCell id="_pFmZdwCmeKVnsKfdtBn-96" style="edgeStyle=orthogonalEdgeStyle;rounded=0;orthogonalLoop=1;jettySize=auto;html=1;endArrow=classic;endFill=1;startArrow=none;startFill=0;dashed=1;" parent="1" source="_pFmZdwCmeKVnsKfdtBn-97" edge="1">
          <mxGeometry relative="1" as="geometry">
            <mxPoint x="610" y="760" as="targetPoint" />
          </mxGeometry>
        </mxCell>
        <mxCell id="_pFmZdwCmeKVnsKfdtBn-97" value="&lt;div&gt;&lt;span style=&quot;background-color: transparent; color: light-dark(rgb(51, 51, 51), rgb(193, 193, 193));&quot;&gt;BPMailSend&lt;/span&gt;&lt;/div&gt;" style="text;html=1;align=center;verticalAlign=middle;resizable=0;points=[];autosize=1;strokeColor=none;fillColor=#f5f5f5;fontColor=#333333;rounded=1;" parent="1" vertex="1">
          <mxGeometry x="741" y="745" width="90" height="30" as="geometry" />
        </mxCell>
        <mxCell id="_pFmZdwCmeKVnsKfdtBn-98" style="edgeStyle=orthogonalEdgeStyle;rounded=0;orthogonalLoop=1;jettySize=auto;html=1;entryX=0.005;entryY=0.5;entryDx=0;entryDy=0;entryPerimeter=0;startArrow=classic;startFill=1;endArrow=none;endFill=0;" parent="1" source="_pFmZdwCmeKVnsKfdtBn-78" target="_pFmZdwCmeKVnsKfdtBn-95" edge="1">
          <mxGeometry relative="1" as="geometry" />
        </mxCell>
        <mxCell id="_pFmZdwCmeKVnsKfdtBn-99" style="edgeStyle=orthogonalEdgeStyle;rounded=0;orthogonalLoop=1;jettySize=auto;html=1;entryX=0.012;entryY=0.497;entryDx=0;entryDy=0;entryPerimeter=0;endArrow=none;endFill=0;startArrow=classic;startFill=1;" parent="1" source="_pFmZdwCmeKVnsKfdtBn-97" target="_pFmZdwCmeKVnsKfdtBn-81" edge="1">
          <mxGeometry relative="1" as="geometry" />
        </mxCell>
        <mxCell id="_pFmZdwCmeKVnsKfdtBn-100" value="&lt;font style=&quot;font-size: 15px;&quot;&gt;Earth Internet&lt;/font&gt;" style="text;html=1;align=center;verticalAlign=middle;whiteSpace=wrap;rounded=0;" parent="1" vertex="1">
          <mxGeometry x="269.97000000000025" y="680" width="100.03" height="30" as="geometry" />
        </mxCell>
        <mxCell id="_pFmZdwCmeKVnsKfdtBn-101" value="&lt;font style=&quot;font-size: 15px;&quot;&gt;Moon Internet&lt;/font&gt;" style="text;html=1;align=center;verticalAlign=middle;whiteSpace=wrap;rounded=0;" parent="1" vertex="1">
          <mxGeometry x="759.9700000000003" y="680" width="100.03" height="30" as="geometry" />
        </mxCell>
        <mxCell id="_pFmZdwCmeKVnsKfdtBn-102" value="ION-DTN" style="text;html=1;align=center;verticalAlign=middle;whiteSpace=wrap;rounded=0;" parent="1" vertex="1">
          <mxGeometry x="520" y="733" width="60" height="30" as="geometry" />
        </mxCell>
        <mxCell id="_pFmZdwCmeKVnsKfdtBn-103" value="Thunderbird" style="text;html=1;align=center;verticalAlign=middle;resizable=0;points=[];autosize=1;strokeColor=none;fillColor=#f5f5f5;fontColor=#333333;rounded=1;" parent="1" vertex="1">
          <mxGeometry x="349.68000000000006" y="910" width="90" height="30" as="geometry" />
        </mxCell>
        <mxCell id="_pFmZdwCmeKVnsKfdtBn-104" value="172.21.0.5" style="text;html=1;align=center;verticalAlign=middle;resizable=0;points=[];autosize=1;strokeColor=none;fillColor=none;" parent="1" vertex="1">
          <mxGeometry x="359.68000000000006" y="970" width="80" height="30" as="geometry" />
        </mxCell>
      </root>
    </mxGraphModel>
  </diagram>
</mxfile>
